HIERARCHY
ROOT Hips
{
	OFFSET -3.958830 18.904000 13.208200
	CHANNELS 6 Xposition Yposition Zposition Zrotation Yrotation Xrotation 
	JOINT LHipJoint
	{
		OFFSET 0.000000 0.000000 0.000000
		CHANNELS 3 Zrotation Yrotation Xrotation
		JOINT LeftUpLeg
		{
			OFFSET 1.800000 -1.400000 0.085000
			CHANNELS 3 Zrotation Yrotation Xrotation
			JOINT LeftLeg
			{
				OFFSET 2.215000 -6.000000 0.000000
				CHANNELS 3 Zrotation Yrotation Xrotation
				JOINT LeftFoot
				{
					OFFSET 2.500000 -6.900000 0.000000
					CHANNELS 3 Zrotation Yrotation Xrotation
					JOINT LeftToeBase
					{
						OFFSET 0.200000 -0.500000 1.950000
						CHANNELS 3 Zrotation Yrotation Xrotation
						End Site
						{
							OFFSET 0.000000 0.000000 0.000000
						}
					}
				}
			}
		}
	}
	JOINT RHipJoint
	{
		OFFSET 0.000000 0.000000 0.000000
		CHANNELS 3 Zrotation Yrotation Xrotation
		JOINT RightUpLeg
		{
			OFFSET -1.800000 -1.400000 0.085000
			CHANNELS 3 Zrotation Yrotation Xrotation
			JOINT RightLeg
			{
				OFFSET -2.215000 -6.000000 0.000000
				CHANNELS 3 Zrotation Yrotation Xrotation
				JOINT RightFoot
				{
					OFFSET -2.500000 -6.900000 0.000000
					CHANNELS 3 Zrotation Yrotation Xrotation
					JOINT RightToeBase
					{
						OFFSET -0.200000 -0.500000 1.950000
						CHANNELS 3 Zrotation Yrotation Xrotation
						End Site
						{
							OFFSET 0.000000 0.000000 0.000000
						}
					}
				}
			}
		}
	}
	JOINT LowerBack
	{
		OFFSET 0.000000 0.000000 0.000000
		CHANNELS 3 Zrotation Yrotation Xrotation
		JOINT Spine
		{
			OFFSET -0.087000 1.940000 -0.288900
			CHANNELS 3 Zrotation Yrotation Xrotation
			JOINT Spine1
			{
				OFFSET 0.000000 1.950000 0.060000
				CHANNELS 3 Zrotation Yrotation Xrotation
				JOINT Neck
				{
					OFFSET 0.000000 0.000000 0.000000
					CHANNELS 3 Zrotation Yrotation Xrotation
					JOINT Neck1
					{
						OFFSET 0.000000 1.600000 0.340000
						CHANNELS 3 Zrotation Yrotation Xrotation
						JOINT Head
						{
							OFFSET 0.000000 1.667000 -0.240000
							CHANNELS 3 Zrotation Yrotation Xrotation
							End Site
							{
								OFFSET 0.000000 0.000000 0.000000
							}
						}
					}
				}
				JOINT LeftShoulder
				{
					OFFSET 0.000000 0.000000 0.000000
					CHANNELS 3 Zrotation Yrotation Xrotation
					JOINT LeftArm
					{
						OFFSET 2.700000 1.550000 -0.730000
						CHANNELS 3 Zrotation Yrotation Xrotation
						JOINT LeftForeArm
						{
							OFFSET 5.450000 0.000000 0.000000
							CHANNELS 3 Zrotation Yrotation Xrotation
							JOINT LeftHand
							{
								OFFSET 3.450000 0.000000 0.000000
								CHANNELS 3 Zrotation Yrotation Xrotation
								JOINT LeftHandIndex1
								{
									OFFSET 0.750000 0.000000 0.000000
									CHANNELS 3 Zrotation Yrotation Xrotation
									End Site
									{
										OFFSET 0.000000 0.000000 0.000000
									}
								}
							}
						}
					}
				}
				JOINT RightShoulder
				{
					OFFSET 0.000000 0.000000 0.000000
					CHANNELS 3 Zrotation Yrotation Xrotation
					JOINT RightArm
					{
						OFFSET -2.700000 1.550000 -0.730000
						CHANNELS 3 Zrotation Yrotation Xrotation
						JOINT RightForeArm
						{
							OFFSET -5.450000 0.000000 0.000000
							CHANNELS 3 Zrotation Yrotation Xrotation
							JOINT RightHand
							{
								OFFSET -3.450000 0.000000 0.000000
								CHANNELS 3 Zrotation Yrotation Xrotation
								JOINT RightHandIndex1
								{
									OFFSET -0.750000 0.000000 0.000000
									CHANNELS 3 Zrotation Yrotation Xrotation
									End Site
									{
										OFFSET 0.000000 0.000000 0.000000
									}
								}
							}
						}
					}
				}
			}
		}
	}
}
MOTION
Frames: 9
Frame Time: 0.016667
0.414000 17.152810 -2.034090 -5.652715 -4.124363 -3.220734 -14.829994 12.512048 1.719724 5.802198 -0.787077 -7.332343 -4.116355 7.812815 25.984885 -0.360371 5.651344 2.771440 0.199930 -0.076910 0.064910 18.909588 -9.443793 5.151079 -10.872552 11.202545 -48.239481 5.634968 -19.132378 73.782423 -2.112637 -12.559520 0.302208 -0.006600 0.493900 0.246400 -4.975414 -1.069206 -8.051816 19.562535 -5.916833 11.439802 -7.596109 -4.022961 7.149119 3.236752 0.646450 -7.340085 -1.347376 -1.360104 44.401751 -4.575690 -1.190730 -2.392120 -17.636092 -4.255547 2.580438 -45.645568 -2.576639 -6.364860 -28.407366 -33.984046 5.397773 -3.846799 3.022465 0.516130 0.261860 -0.114600 0.221110 11.049963 1.887820 2.515819 53.721648 6.026342 -7.114669 11.623454 25.256865 0.514310 2.075296 -1.271934 -0.289230 0.320890 0.146370 -0.112970 
0.418140 17.078570 -2.050090 -5.225907 -4.851022 -3.837640 -14.871625 12.519041 1.736849 5.383523 -0.798439 -7.412896 -4.017490 8.133539 27.619735 -0.320373 5.873652 2.677782 0.206860 -0.075320 0.097590 18.876427 -9.280198 5.325250 -11.901520 11.692766 -49.329712 6.093878 -20.141894 75.873691 -2.245365 -13.003746 0.181469 -0.010590 0.460850 0.249960 -4.860249 -1.268530 -8.224778 18.565449 -5.915573 13.010229 -7.147004 -3.956402 6.454562 3.336847 0.727261 -7.411467 -1.217553 -1.299126 45.370644 -5.262970 -0.782140 -2.963370 -19.119250 -4.735733 2.624416 -44.076491 -1.442511 -6.685158 -27.994699 -33.285953 5.092638 -3.833080 2.997281 0.541370 0.242760 -0.086810 0.204020 12.403592 2.547164 2.467374 52.594661 6.211554 -7.085018 11.459765 25.409697 0.548117 2.085267 -1.241539 -0.286010 0.318320 0.144240 -0.129900 
0.433160 16.951280 -2.072300 -4.723862 -5.478605 -4.820704 -14.935765 12.511419 1.782649 4.858034 -1.013076 -8.020279 -3.929167 8.812812 31.041015 -0.203866 6.337275 2.482122 0.244350 -0.023610 0.131670 18.826933 -9.032480 5.552060 -13.415759 12.176264 -50.890944 6.712576 -21.910268 79.115001 -2.464858 -13.728738 0.001958 0.000190 0.405140 0.263540 -4.686781 -1.575011 -8.474429 17.414322 -6.074764 15.411217 -6.616880 -4.024302 5.304389 3.476520 0.779455 -7.407730 -1.112675 -1.095668 46.331723 -5.979510 -0.230340 -3.766610 -21.423499 -5.272446 2.583404 -41.676798 0.003321 -6.985963 -27.252511 -32.180516 4.664369 -3.793523 3.010612 0.553440 0.216630 -0.042180 0.201690 14.523384 3.330345 2.348111 50.726725 6.262046 -7.111972 11.525054 25.906657 0.650735 2.097298 -1.237486 -0.250740 0.290190 0.117190 -0.134250 
0.451550 16.807810 -2.103660 -4.288476 -6.124763 -5.932627 -15.001697 12.493707 1.871732 4.281619 -1.486104 -9.212144 -3.501976 9.584452 35.666469 -0.038226 6.989510 2.230385 0.300670 0.048470 0.173310 18.772454 -8.797553 5.735662 -14.726594 12.547287 -52.168084 7.086087 -23.515895 82.097812 -2.681890 -14.364986 -0.143453 0.017890 0.356040 0.280660 -4.503751 -1.876712 -8.722220 16.463959 -6.246014 18.201921 -6.316016 -4.068430 3.829388 3.671855 0.824991 -7.296410 -0.992096 -0.884384 47.353017 -6.138600 0.015130 -5.029100 -23.757181 -5.614421 2.316791 -39.371029 0.805715 -6.872557 -25.151138 -29.798017 3.738027 -3.744162 3.006778 0.573020 0.182020 0.015880 0.218230 16.550197 3.935119 2.211144 49.153979 6.308866 -7.168287 11.757143 26.451811 0.778885 2.110500 -1.235099 -0.210650 0.276520 0.075070 -0.127490 
0.472900 16.667660 -2.135160 -3.854520 -6.905829 -6.729369 -15.070547 12.432755 2.022436 3.771099 -2.227794 -11.074271 -3.242555 10.590308 40.872984 0.159657 7.835656 1.912771 0.325270 0.076530 0.189750 18.722047 -8.536581 5.870672 -15.745680 12.933689 -53.289235 7.396477 -24.857243 84.438878 -2.839479 -14.878332 -0.264549 0.019120 0.321320 0.295190 -4.329645 -2.191473 -8.951756 15.724799 -6.504899 20.737584 -6.242408 -4.203706 2.007990 3.832225 0.436175 -7.081341 -1.625237 -0.164629 47.736553 -6.267460 0.343560 -5.679760 -26.234177 -5.635712 1.940197 -37.142722 1.590833 -6.471940 -22.146898 -26.432337 2.580777 -3.713614 3.011056 0.580550 0.159230 0.041900 0.216360 18.705245 4.511175 2.065185 47.680760 6.364796 -7.232451 12.288533 27.280288 1.003015 2.119608 -1.244170 -0.181910 0.249700 0.062360 -0.126330 
0.497090 16.549100 -2.155370 -3.532927 -7.561225 -7.119173 -15.121094 12.337489 2.201262 3.665599 -2.973396 -12.990146 -3.620243 11.842542 45.224254 0.360190 8.687500 1.614820 0.313510 0.057650 0.188230 18.690345 -8.313309 5.932513 -16.397013 13.258391 -53.954439 7.562440 -25.812942 86.017810 -2.937543 -15.224919 -0.341590 -0.001700 0.308830 0.301300 -4.216609 -2.428056 -9.132205 15.533573 -6.819337 22.356519 -6.287605 -4.407464 0.277278 4.029122 -0.166319 -6.917471 -2.625194 0.711539 48.340440 -6.661540 0.712310 -5.610420 -28.129109 -5.176866 1.574296 -35.894066 2.460034 -6.062251 -18.935907 -22.980902 1.532357 -3.706298 2.984371 0.585320 0.149190 0.048220 0.204670 20.147454 4.718657 1.962329 47.037252 6.330056 -7.385931 13.057505 28.395480 1.316222 2.127396 -1.243184 -0.172130 0.234520 0.070540 -0.127700 
0.507300 16.460870 -2.167790 -3.299763 -7.981490 -7.056532 -15.151643 12.248645 2.414301 3.946323 -3.679472 -15.036308 -4.366313 13.160456 48.637495 0.556309 9.421859 1.340162 0.283070 0.018390 0.172140 18.662938 -8.201376 5.883917 -16.093533 13.516968 -53.651562 7.457664 -25.854719 86.246698 -2.947858 -15.249880 -0.364555 -0.049690 0.273030 0.322070 -4.138955 -2.553090 -9.268262 15.496219 -7.032417 22.974832 -6.502658 -4.504832 -1.168995 4.409118 -0.652612 -7.205436 -3.399861 1.471466 49.672819 -7.142890 1.127670 -5.043510 -28.581987 -4.597524 1.416580 -36.335535 3.162725 -5.787592 -14.780368 -19.775243 0.567037 -3.709884 2.963674 0.588880 0.127520 0.062980 0.172850 19.735916 4.794188 2.316153 48.815036 5.743574 -8.211715 14.392101 31.094692 1.816356 2.138217 -1.264486 -0.139490 0.179530 0.094600 -0.127840 
0.520030 16.399150 -2.163560 -3.308874 -8.325058 -6.578985 -15.129948 12.160303 2.603787 4.460530 -4.147904 -16.708808 -5.437382 14.298754 50.438305 0.686664 9.915492 1.177208 0.242420 -0.033230 0.151770 18.674857 -8.251945 5.724774 -15.125606 13.530622 -52.368556 7.044265 -25.025810 85.160643 -2.867622 -14.957126 -0.289812 -0.091760 0.266080 0.309780 -4.196417 -2.461225 -9.293179 16.465285 -7.263394 22.403017 -7.418070 -4.499205 -2.049758 4.881149 -1.166659 -7.432849 -4.273416 1.978897 50.533750 -7.665140 1.266390 -4.220410 -27.969028 -3.482203 1.027504 -38.038558 2.998632 -5.472915 -9.921819 -16.988640 -0.186374 -3.740457 2.878651 0.594710 0.116720 0.059040 0.158840 17.954940 4.170918 2.829900 52.370408 4.856183 -9.433065 16.662656 35.185821 2.653671 2.130169 -1.291208 -0.142510 0.171740 0.110990 -0.129650 
0.522980 16.366290 -2.155400 -3.273798 -8.959686 -5.761146 -15.086411 12.085558 2.793449 5.186304 -4.385331 -18.294007 -6.858740 15.475303 51.274190 0.832922 10.308521 1.083456 0.171730 -0.111500 0.096150 18.702054 -8.399069 5.481450 -13.097839 13.684321 -50.341623 5.797024 -22.803581 83.141270 -2.681917 -14.325274 -0.120055 -0.150770 0.314070 0.296770 -4.309910 -2.266927 -9.239568 17.573966 -7.421476 21.262383 -8.510862 -4.515900 -2.652865 5.069498 -1.898493 -7.606979 -5.526764 2.873939 50.118109 -7.606260 1.454220 -2.252370 -26.581459 -1.948468 0.693023 -40.054065 3.224607 -5.487462 -6.413651 -15.701175 -0.534550 -3.791074 2.818343 0.561570 0.136800 0.026390 0.163720 15.907592 3.203692 3.342335 55.973949 4.003530 -10.407360 21.306901 40.063683 4.457645 2.136059 -1.358639 -0.149520 0.177000 0.130330 -0.103990 
